<?xml version="1.0" encoding="UTF-8" standalone="no"?>
<!-- Created with Inkscape (http://www.inkscape.org/) -->

<svg
   version="1.1"
   id="svg1"
   width="122.69148"
   height="122.82338"
   viewBox="0 0 122.69149 122.82338"
   xmlns="http://www.w3.org/2000/svg"
   xmlns:svg="http://www.w3.org/2000/svg">
  <defs
     id="defs1" />
  <g
     id="g1"
     transform="translate(-19.497487,-22.279467)">
    <path
       style="fill:#000000"
       d="m 51.263136,144.67143 c -0.646724,-0.23097 -1.726724,-0.86186 -2.399999,-1.40197 -2.429716,-1.94915 -28.205155,-28.09706 -28.774187,-29.18999 -0.370654,-0.71191 -0.58613,-1.81958 -0.591375,-3.04 -0.01102,-2.5645 1.007058,-4.41869 3.155443,-5.74689 l 1.574018,-0.97311 9.545982,-0.0975 9.545982,-0.0975 0.0013,-23.742463 c 0.0011,-19.75855 0.08329,-24.248083 0.489968,-26.755737 1.259743,-7.767749 4.856196,-14.713181 10.535851,-20.346728 5.162964,-5.121051 10.988036,-8.338388 18.412893,-10.169914 2.64733,-0.65303 3.53214,-0.673984 33.117778,-0.784289 27.29804,-0.101776 30.53481,-0.061 31.74152,0.399844 1.97055,0.752558 2.96781,1.663996 3.81766,3.489123 0.68695,1.475271 0.75642,2.053382 0.75288,6.265236 -0.003,3.976096 -0.097,4.845216 -0.65447,6.074246 -0.82072,1.809383 -1.41237,2.460759 -3.01537,3.319805 -1.27618,0.683898 -1.36995,0.686428 -31.36,0.845949 l -30.079999,0.16 -2.126833,0.828245 c -4.036338,1.571855 -7.647494,4.790863 -9.481368,8.451755 -1.697325,3.388304 -1.671797,2.954981 -1.671797,28.37808 v 23.621848 h 8.842873 c 5.700335,0 9.276115,0.1298 10.061995,0.36526 3.73838,1.12004 5.79403,5.5206 4.2813,9.16502 -0.33658,0.81086 -5.04951,5.76064 -14.800002,15.54376 -15.018123,15.06838 -15.987796,15.89451 -18.626166,15.86879 -0.616,-0.006 -1.649139,-0.1999 -2.295864,-0.43087 z"
       id="path1" />
  </g>
</svg>
