<?xml version="1.0" encoding="UTF-8" standalone="no"?>
<!-- Created with Inkscape (http://www.inkscape.org/) -->

<svg
   version="1.1"
   id="svg1"
   width="215.35083"
   height="445.6973"
   viewBox="0 0 215.35083 445.6973"
   xmlns="http://www.w3.org/2000/svg"
   xmlns:svg="http://www.w3.org/2000/svg">
  <defs
     id="defs1" />
  <g
     id="g1"
     transform="translate(-51.914745,-39.009531)">
    <path
       style="fill:#aa0000"
       d="m 133.10538,484.32643 c -1.51044,-0.54384 -3.17557,-1.80414 -4.25709,-3.22208 -1.8723,-2.45472 -1.74215,9.1049 -1.74355,-154.85605 -0.001,-164.41624 0.12363,-153.23755 -1.77923,-159.06915 -1.84027,-5.63973 -4.75758,-10.74192 -9.14843,-16 -2.7293,-3.26834 -31.267368,-31.53432 -32.848858,-32.53564 -2.01593,-1.2764 -2.32432,-1.06066 -11.86331,8.29892 -4.92825,4.83557 -9.23349,8.79661 -9.89981,9.10833 -1.37597,0.64372 -2.59917,0.70281 -4.37907,0.21152 -1.72091,-0.47501 -4.44811,-3.20221 -4.92312,-4.92313 -0.24962,-0.90435 -0.35177,-13.67641 -0.34807,-43.520005 0.005,-41.788668 0.0122,-42.255381 0.65632,-43.679995 0.797,-1.762738 2.27379,-3.34845 3.97487,-4.268041 l 1.28,-0.691959 40.640001,-0.0886 c 44.975727,-0.09805 42.069997,-0.224482 44.532487,1.937618 2.10457,1.847837 2.94783,4.991747 2.009,7.490151 -0.18618,0.495458 -4.85867,5.436832 -10.38331,10.980832 -5.52465,5.544 -10.19276,10.475995 -10.37358,10.959995 -0.19941,0.53378 -0.21851,1.16998 -0.0485,1.61704 0.15412,0.40537 7.20656,7.58671 15.67208,15.95853 10.11714,10.00516 15.39186,15.441084 15.39186,15.862274 0,0.35243 -0.81291,1.63109 -1.80646,2.84147 -5.99916,7.3084 -10.17479,13.65287 -13.76901,20.92069 -5.46195,11.04455 -8.31649,21.49961 -8.91816,32.66367 -0.19982,3.70762 -0.16373,4.1278 0.45943,5.3493 0.37196,0.7291 0.95435,1.47445 1.2942,1.65633 0.99992,0.53514 2.4292,0.38143 3.37562,-0.36303 1.3968,-1.09872 1.76438,-2.41207 1.76438,-6.30419 0,-7.62263 2.7617,-18.74544 6.7606,-27.22845 6.97436,-14.79497 14.00167,-23.69208 38.1759,-48.333634 13.06789,-13.32051 12.76967,-12.98471 12.57477,-14.15964 -0.14034,-0.84596 -2.03332,-2.89343 -10.13073,-10.957511 -6.38722,-6.360927 -10.1845,-10.384718 -10.58935,-11.221032 -1.53484,-3.170552 -0.0705,-7.035242 3.36881,-8.891119 l 1.28,-0.690693 40.79945,-0.08481 40.79946,-0.08481 1.96422,0.96698 c 1.11693,0.549864 2.33032,1.446967 2.81293,2.079712 1.87883,2.463265 1.78409,0.01572 1.78215,46.043163 -10e-4,29.227434 -0.10823,42.663144 -0.34659,43.521604 -0.45858,1.65158 -2.92394,4.09482 -4.64875,4.60703 -3.70384,1.09992 -4.42254,0.63628 -14.48871,-9.34678 -5.42248,-5.37771 -8.84071,-8.53168 -9.39812,-8.67159 -1.97258,-0.49508 -0.77162,-1.55036 -20.36181,17.89177 -6.40517,6.35676 -12.86397,12.92008 -14.35289,14.58515 -5.14356,5.75212 -8.19808,11.36135 -10.27316,18.86536 l -0.84822,3.06722 -0.16,152.64 c -0.1529,145.86613 -0.18545,152.69422 -0.73332,153.86161 -0.77468,1.65063 -2.95222,3.95937 -4.5323,4.80537 -1.29339,0.69249 -1.31417,0.69308 -27.05438,0.76281 -20.96385,0.0568 -25.98355,-0.0107 -26.96065,-0.36251 z"
       id="path1" />
  </g>
</svg>
